<svg xmlns="http://www.w3.org/2000/svg" viewBox="0 0 1200 630">
  <defs>
    <radialGradient id="glow" cx="78%" cy="22%" r="68%">
      <stop offset="0" stop-color="#2b6a73" stop-opacity=".42"/>
      <stop offset="1" stop-color="#081722" stop-opacity="0"/>
    </radialGradient>
    <linearGradient id="gold" x1="0" y1="1" x2="1" y2="0">
      <stop offset="0" stop-color="#aa8d57"/>
      <stop offset="1" stop-color="#e0cfaa"/>
    </linearGradient>
  </defs>
  <rect width="1200" height="630" fill="#081722"/>
  <rect width="1200" height="630" fill="url(#glow)"/>
  <g opacity=".12" stroke="#d9e4e6">
    <path d="M760 0v630M850 0v630M940 0v630M1030 0v630M1120 0v630"/>
    <path d="M690 90h510M690 180h510M690 270h510M690 360h510M690 450h510M690 540h510"/>
  </g>
  <path d="M725 490c86-35 145-76 205-137 61-62 112-116 213-218" fill="none" stroke="url(#gold)" stroke-width="5" stroke-linecap="round"/>
  <circle cx="725" cy="490" r="8" fill="#c9b77f"/>
  <circle cx="930" cy="353" r="8" fill="#c9b77f"/>
  <circle cx="1143" cy="135" r="10" fill="#e0cfaa"/>
  <text x="84" y="116" fill="#d3bd87" font-family="-apple-system,BlinkMacSystemFont,'Helvetica Neue',Arial,sans-serif" font-size="20" font-weight="600" letter-spacing="5">FRACTIONAL CFO · STRATEGIC FINANCE</text>
  <text x="84" y="280" fill="#f6f4ef" font-family="-apple-system,BlinkMacSystemFont,'Helvetica Neue',Arial,sans-serif" font-size="76" font-weight="650" letter-spacing="-3">Mirant Desai</text>
  <text x="84" y="350" fill="#c7d1d5" font-family="-apple-system,BlinkMacSystemFont,'Helvetica Neue',Arial,sans-serif" font-size="32">Financial leadership for critical</text>
  <text x="84" y="394" fill="#c7d1d5" font-family="-apple-system,BlinkMacSystemFont,'Helvetica Neue',Arial,sans-serif" font-size="32">business decisions.</text>
  <rect x="84" y="492" width="90" height="3" rx="1.5" fill="#d3bd87"/>
</svg>
